<svg xmlns="http://www.w3.org/2000/svg" width="1920" height="1080"><path d="M940,565L652,520L941,848Z" fill="#e39d68" stroke="#e39d68" stroke-width="1.51"/><path d="M652,520L614,872L941,848Z" fill="#d9945f" stroke="#d9945f" stroke-width="1.51"/><path d="M652,520L304,568L614,872Z" fill="#d7915c" stroke="#d7915c" stroke-width="1.51"/><path d="M304,568L311,868L614,872Z" fill="#cd8853" stroke="#cd8853" stroke-width="1.51"/><path d="M652,520L612,241L304,568Z" fill="#d7925d" stroke="#d7925d" stroke-width="1.51"/><path d="M961,214L612,241L652,520Z" fill="#da945f" stroke="#da945f" stroke-width="1.51"/><path d="M614,872L610,1196L941,848Z" fill="#cf8a55" stroke="#cf8a55" stroke-width="1.51"/><path d="M311,868L610,1196L614,872Z" fill="#c8834e" stroke="#c8834e" stroke-width="1.51"/><path d="M940,565L961,214L652,520Z" fill="#e29d68" stroke="#e29d68" stroke-width="1.51"/><path d="M1282,563L961,214L940,565Z" fill="#e39e69" stroke="#e39e69" stroke-width="1.51"/><path d="M941,848L1282,563L940,565Z" fill="#e29d68" stroke="#e29d68" stroke-width="1.51"/><path d="M1289,857L1282,563L941,848Z" fill="#da945f" stroke="#da945f" stroke-width="1.51"/><path d="M953,1218L1289,857L941,848Z" fill="#d48f5a" stroke="#d48f5a" stroke-width="1.51"/><path d="M610,1196L953,1218L941,848Z" fill="#ce8954" stroke="#ce8954" stroke-width="1.51"/><path d="M612,241L286,214L304,568Z" fill="#ce8954" stroke="#ce8954" stroke-width="1.51"/><path d="M-27,1170L285,1212L311,868Z" fill="#ba7540" stroke="#ba7540" stroke-width="1.51"/><path d="M309,-132L286,214L612,241Z" fill="#c47f4a" stroke="#c47f4a" stroke-width="1.51"/><path d="M1282,563L1286,238L961,214Z" fill="#da9560" stroke="#da9560" stroke-width="1.51"/><path d="M1596,232L1286,238L1282,563Z" fill="#d38e59" stroke="#d38e59" stroke-width="1.51"/><path d="M660,1511L947,1497L953,1218Z" fill="#db9560" stroke="#db9560" stroke-width="1.51"/><path d="M311,868L285,1212L610,1196Z" fill="#bf7a45" stroke="#bf7a45" stroke-width="1.51"/><path d="M-31,875L311,868L304,568Z" fill="#c8834e" stroke="#c8834e" stroke-width="1.51"/><path d="M953,1218L1284,1204L1289,857Z" fill="#cb8651" stroke="#cb8651" stroke-width="1.51"/><path d="M953,-117L657,-91L961,214Z" fill="#cf8a55" stroke="#cf8a55" stroke-width="1.51"/><path d="M961,214L657,-91L612,241Z" fill="#d18b56" stroke="#d18b56" stroke-width="1.51"/><path d="M953,1218L1259,1535L1284,1204Z" fill="#d38e59" stroke="#d38e59" stroke-width="1.51"/><path d="M660,1511L953,1218L610,1196Z" fill="#d38d58" stroke="#d38d58" stroke-width="1.51"/><path d="M303,1513L660,1511L610,1196Z" fill="#d08a55" stroke="#d08a55" stroke-width="1.51"/><path d="M-40,537L-31,875L304,568Z" fill="#d18c57" stroke="#d18c57" stroke-width="1.51"/><path d="M286,214L-40,537L304,568Z" fill="#ce8954" stroke="#ce8954" stroke-width="1.51"/><path d="M1287,-120L953,-117L961,214Z" fill="#cf8954" stroke="#cf8954" stroke-width="1.51"/><path d="M1286,238L1287,-120L961,214Z" fill="#d08b56" stroke="#d08b56" stroke-width="1.51"/><path d="M1289,857L1621,556L1282,563Z" fill="#d6915c" stroke="#d6915c" stroke-width="1.51"/><path d="M1635,842L1621,556L1289,857Z" fill="#ce8954" stroke="#ce8954" stroke-width="1.51"/><path d="M1641,1166L1635,842L1289,857Z" fill="#c5804b" stroke="#c5804b" stroke-width="1.51"/><path d="M-31,875L-27,1170L311,868Z" fill="#c37e49" stroke="#c37e49" stroke-width="1.51"/><path d="M285,1212L303,1513L610,1196Z" fill="#c6814c" stroke="#c6814c" stroke-width="1.51"/><path d="M-319,881L-27,1170L-31,875Z" fill="#ca8550" stroke="#ca8550" stroke-width="1.51"/><path d="M-17,1516L303,1513L285,1212Z" fill="#c6814c" stroke="#c6814c" stroke-width="1.51"/><path d="M-7,-94L-41,209L286,214Z" fill="#c37e49" stroke="#c37e49" stroke-width="1.51"/><path d="M286,214L-41,209L-40,537Z" fill="#cd8853" stroke="#cd8853" stroke-width="1.51"/><path d="M1621,556L1596,232L1282,563Z" fill="#d48f5a" stroke="#d48f5a" stroke-width="1.51"/><path d="M657,-91L309,-132L612,241Z" fill="#c47f4a" stroke="#c47f4a" stroke-width="1.51"/><path d="M633,-430L309,-132L657,-91Z" fill="#cb8550" stroke="#cb8550" stroke-width="1.51"/><path d="M947,1497L1259,1535L953,1218Z" fill="#dc9661" stroke="#dc9661" stroke-width="1.51"/><path d="M1284,1204L1641,1166L1289,857Z" fill="#c37e49" stroke="#c37e49" stroke-width="1.51"/><path d="M660,1511L1259,1535L947,1497Z" fill="#e39e69" stroke="#e39e69" stroke-width="1.51"/><path d="M303,1513L1259,1535L660,1511Z" fill="#dc9761" stroke="#dc9761" stroke-width="1.51"/><path d="M937,-431L633,-430L657,-91Z" fill="#d6915c" stroke="#d6915c" stroke-width="1.51"/><path d="M1589,-116L1287,-120L1286,238Z" fill="#c47f4a" stroke="#c47f4a" stroke-width="1.51"/><path d="M1590,1537L1641,1166L1284,1204Z" fill="#c7824d" stroke="#c7824d" stroke-width="1.51"/><path d="M-27,1170L-17,1516L285,1212Z" fill="#c5804b" stroke="#c5804b" stroke-width="1.51"/><path d="M-326,552L-319,881L-31,875Z" fill="#d6915c" stroke="#d6915c" stroke-width="1.51"/><path d="M-326,552L-31,875L-40,537Z" fill="#d9935e" stroke="#d9935e" stroke-width="1.51"/><path d="M-322,206L-326,552L-40,537Z" fill="#dd9762" stroke="#dd9762" stroke-width="1.51"/><path d="M309,-132L-7,-94L286,214Z" fill="#ba7540" stroke="#ba7540" stroke-width="1.51"/><path d="M-41,209L-322,206L-40,537Z" fill="#d48f5a" stroke="#d48f5a" stroke-width="1.51"/><path d="M303,1513L-17,1516L1259,1535Z" fill="#d48f5a" stroke="#d48f5a" stroke-width="1.51"/><path d="M-364,1524L-17,1516L-27,1170Z" fill="#d18c57" stroke="#d18c57" stroke-width="1.51"/><path d="M309,-132L-37,-435L-7,-94Z" fill="#c5804b" stroke="#c5804b" stroke-width="1.51"/><path d="M937,-431L657,-91L953,-117Z" fill="#d5905b" stroke="#d5905b" stroke-width="1.51"/><path d="M1269,-418L937,-431L953,-117Z" fill="#db9661" stroke="#db9661" stroke-width="1.51"/><path d="M1287,-120L1269,-418L953,-117Z" fill="#d28d58" stroke="#d28d58" stroke-width="1.51"/><path d="M1596,232L1589,-116L1286,238Z" fill="#c5804b" stroke="#c5804b" stroke-width="1.51"/><path d="M1940,199L1589,-116L1596,232Z" fill="#be7944" stroke="#be7944" stroke-width="1.51"/><path d="M1934,511L1596,232L1621,556Z" fill="#cd8853" stroke="#cd8853" stroke-width="1.51"/><path d="M1259,1535L1590,1537L1284,1204Z" fill="#d18c57" stroke="#d18c57" stroke-width="1.51"/><path d="M1635,842L1934,511L1621,556Z" fill="#ce8954" stroke="#ce8954" stroke-width="1.51"/><path d="M1962,891L1934,511L1635,842Z" fill="#cd8853" stroke="#cd8853" stroke-width="1.51"/><path d="M1962,891L1635,842L1641,1166Z" fill="#c17b46" stroke="#c17b46" stroke-width="1.51"/><path d="M-7,-94L-322,206L-41,209Z" fill="#ca8550" stroke="#ca8550" stroke-width="1.51"/><path d="M1922,1219L1962,891L1641,1166Z" fill="#be7944" stroke="#be7944" stroke-width="1.51"/><path d="M-7,-94L-354,-132L-322,206Z" fill="#c8834e" stroke="#c8834e" stroke-width="1.51"/><path d="M633,-430L320,-413L309,-132Z" fill="#cb8651" stroke="#cb8651" stroke-width="1.51"/><path d="M-319,881L-357,1165L-27,1170Z" fill="#c9844f" stroke="#c9844f" stroke-width="1.51"/><path d="M-326,552L-357,1165L-319,881Z" fill="#d6915c" stroke="#d6915c" stroke-width="1.51"/><path d="M-354,-132L-357,1165L-326,552Z" fill="#e59f6a" stroke="#e59f6a" stroke-width="1.51"/><path d="M1589,-116L1269,-418L1287,-120Z" fill="#cb8550" stroke="#cb8550" stroke-width="1.51"/><path d="M1590,1537L1922,1219L1641,1166Z" fill="#c17c47" stroke="#c17c47" stroke-width="1.51"/><path d="M1934,511L1940,199L1596,232Z" fill="#cc8651" stroke="#cc8651" stroke-width="1.51"/><path d="M1589,-116L1635,-460L1269,-418Z" fill="#cc8651" stroke="#cc8651" stroke-width="1.51"/><path d="M2248,529L1940,199L1934,511Z" fill="#d8925d" stroke="#d8925d" stroke-width="1.51"/><path d="M-357,1165L-364,1524L-27,1170Z" fill="#d18b56" stroke="#d18b56" stroke-width="1.51"/><path d="M-17,1516L-364,1524L1259,1535Z" fill="#cd8853" stroke="#cd8853" stroke-width="1.51"/><path d="M633,-430L-37,-435L320,-413Z" fill="#cc8752" stroke="#cc8752" stroke-width="1.51"/><path d="M320,-413L-37,-435L309,-132Z" fill="#c6814c" stroke="#c6814c" stroke-width="1.51"/><path d="M1635,-460L-37,-435L633,-430Z" fill="#dd9762" stroke="#dd9762" stroke-width="1.51"/><path d="M-322,206L-354,-132L-326,552Z" fill="#d6915c" stroke="#d6915c" stroke-width="1.51"/><path d="M-357,1165L-354,-132L-364,1524Z" fill="#d8925d" stroke="#d8925d" stroke-width="1.51"/><path d="M-37,-435L-354,-132L-7,-94Z" fill="#cd8853" stroke="#cd8853" stroke-width="1.51"/><path d="M1940,199L1920,-133L1589,-116Z" fill="#bc7742" stroke="#bc7742" stroke-width="1.51"/><path d="M-364,1524L1955,1546L1259,1535Z" fill="#e49f6a" stroke="#e49f6a" stroke-width="1.51"/><path d="M1259,1535L1955,1546L1590,1537Z" fill="#ce8954" stroke="#ce8954" stroke-width="1.51"/><path d="M1590,1537L1955,1546L1922,1219Z" fill="#cb8550" stroke="#cb8550" stroke-width="1.51"/><path d="M2275,857L2248,529L1962,891Z" fill="#d7925d" stroke="#d7925d" stroke-width="1.51"/><path d="M937,-431L1635,-460L633,-430Z" fill="#df9a65" stroke="#df9a65" stroke-width="1.51"/><path d="M1269,-418L1635,-460L937,-431Z" fill="#d9935e" stroke="#d9935e" stroke-width="1.51"/><path d="M1920,-133L1635,-460L1589,-116Z" fill="#c17c47" stroke="#c17c47" stroke-width="1.51"/><path d="M2275,857L1962,891L2282,1215Z" fill="#ce8954" stroke="#ce8954" stroke-width="1.51"/><path d="M1962,891L2248,529L1934,511Z" fill="#d9945f" stroke="#d9945f" stroke-width="1.51"/><path d="M1940,199L2272,-111L1920,-133Z" fill="#c47f4a" stroke="#c47f4a" stroke-width="1.51"/><path d="M2282,1215L1962,891L1922,1219Z" fill="#c47f4a" stroke="#c47f4a" stroke-width="1.51"/><path d="M-37,-435L-322,-421L-354,-132Z" fill="#d6905b" stroke="#d6905b" stroke-width="1.51"/><path d="M2248,529L2278,196L1940,199Z" fill="#d7925d" stroke="#d7925d" stroke-width="1.51"/><path d="M1920,-133L1927,-440L1635,-460Z" fill="#ca8550" stroke="#ca8550" stroke-width="1.51"/><path d="M2275,857L2278,196L2248,529Z" fill="#e5a06b" stroke="#e5a06b" stroke-width="1.51"/><path d="M2275,857L2282,1215L2278,196Z" fill="#dc9661" stroke="#dc9661" stroke-width="1.51"/><path d="M2268,1496L2282,1215L1922,1219Z" fill="#d18b56" stroke="#d18b56" stroke-width="1.51"/><path d="M2272,-111L1927,-440L1920,-133Z" fill="#cd8752" stroke="#cd8752" stroke-width="1.51"/><path d="M1955,1546L2268,1496L1922,1219Z" fill="#d28c57" stroke="#d28c57" stroke-width="1.51"/><path d="M2278,196L2272,-111L1940,199Z" fill="#ce8853" stroke="#ce8853" stroke-width="1.51"/><path d="M2278,196L2292,-463L2272,-111Z" fill="#d08b56" stroke="#d08b56" stroke-width="1.51"/><path d="M2272,-111L2292,-463L1927,-440Z" fill="#d6905b" stroke="#d6905b" stroke-width="1.51"/><path d="M1927,-440L2292,-463L1635,-460Z" fill="#d48f59" stroke="#d48f59" stroke-width="1.51"/><path d="M2282,1215L2292,-463L2278,196Z" fill="#dc9762" stroke="#dc9762" stroke-width="1.51"/></svg>